<?xml version="1.0" standalone="no"?>
<!DOCTYPE svg PUBLIC "-//W3C//DTD SVG 20010904//EN"
 "http://www.w3.org/TR/2001/REC-SVG-20010904/DTD/svg10.dtd">
<svg version="1.0" xmlns="http://www.w3.org/2000/svg"
 width="700.000000pt" height="700.000000pt" viewBox="0 0 700.000000 700.000000"
 preserveAspectRatio="xMidYMid meet">
<metadata>
Created by potrace 1.11, written by Peter Selinger 2001-2013
</metadata>
<g transform="translate(0.000000,700.000000) scale(0.100000,-0.100000)"
fill="#000000" stroke="none">
<path d="M2880 6763 c-1099 -546 -2060 -1023 -2275 -1128 -126 -62 -237 -121
-247 -131 -19 -22 -18 -40 7 -384 3 -36 7 -101 10 -145 3 -44 7 -111 10 -150
7 -84 12 -160 20 -280 3 -49 7 -117 10 -150 2 -33 7 -98 10 -145 7 -119 15
-226 20 -290 2 -30 7 -98 10 -150 3 -52 8 -115 10 -140 2 -25 6 -90 10 -145 3
-55 8 -127 10 -160 6 -78 13 -178 20 -290 3 -49 8 -117 10 -150 8 -102 14
-186 20 -280 8 -130 15 -232 20 -295 4 -57 13 -177 20 -290 2 -36 7 -73 10
-82 4 -10 72 -62 151 -115 79 -54 224 -152 322 -218 97 -66 283 -192 412 -280
365 -248 451 -307 650 -441 102 -69 313 -213 470 -319 708 -481 850 -575 868
-575 10 0 142 85 293 189 151 105 523 362 828 573 555 384 720 498 905 625 54
37 134 93 177 123 43 30 204 142 358 248 229 158 281 197 285 220 3 15 8 72
11 127 3 55 8 120 10 145 2 25 7 92 10 150 4 58 8 123 10 145 2 22 6 87 10
145 3 58 8 128 10 155 2 28 7 93 10 145 3 52 7 118 9 145 3 28 7 95 11 150 3
55 8 123 10 150 2 28 7 91 10 140 5 83 9 146 20 300 3 33 7 98 10 145 10 164
16 245 20 300 2 30 7 96 10 145 3 50 8 115 10 145 2 30 7 100 10 155 3 55 8
120 10 145 3 25 7 90 10 145 3 55 8 120 10 144 16 191 17 272 4 288 -12 14
-252 135 -614 308 -60 29 -231 112 -380 185 -148 73 -333 163 -410 200 -77 37
-252 123 -390 190 -137 67 -304 148 -370 180 -66 32 -255 124 -420 205 -470
230 -433 215 -517 214 l-73 0 -475 -236z m905 -28 c110 -54 292 -143 405 -197
113 -55 286 -140 385 -188 99 -48 275 -134 390 -190 116 -56 273 -133 350
-170 77 -37 253 -123 390 -190 138 -67 342 -167 454 -221 112 -55 202 -101
200 -103 -2 -2 -245 -145 -539 -318 -294 -173 -816 -481 -1160 -683 -344 -202
-754 -444 -912 -536 -204 -121 -292 -167 -305 -162 -10 3 -49 25 -88 48 -38
23 -90 53 -115 67 -34 19 -486 280 -775 448 -30 18 -110 64 -355 205 -74 43
-204 118 -288 167 -84 49 -172 99 -195 112 -23 13 -168 97 -322 186 -154 90
-289 168 -300 174 -11 6 -125 72 -253 146 l-233 135 573 283 c589 292 1093
541 1886 934 l454 225 76 -37 c43 -21 167 -82 277 -135z m2629 -1467 c-3 -57
-8 -119 -9 -138 -1 -19 -6 -84 -9 -145 -4 -60 -9 -130 -11 -155 -4 -48 -12
-173 -20 -305 -3 -44 -7 -105 -10 -135 -2 -30 -7 -98 -10 -150 -3 -52 -8 -115
-10 -140 -2 -25 -7 -92 -10 -150 -3 -58 -8 -127 -10 -155 -3 -27 -7 -90 -10
-140 -3 -49 -8 -117 -10 -150 -5 -70 -12 -174 -20 -300 -4 -49 -8 -115 -10
-145 -8 -104 -14 -195 -20 -290 -4 -52 -8 -117 -10 -145 -2 -27 -6 -97 -10
-155 -3 -58 -8 -125 -10 -150 -3 -25 -7 -92 -10 -149 -3 -58 -9 -111 -13 -118
-5 -7 -53 -44 -107 -81 -96 -66 -778 -538 -1362 -942 -279 -193 -871 -602
-1090 -752 -61 -43 -114 -78 -116 -78 -2 0 -3 780 -3 1734 l0 1733 185 109
c101 60 205 121 230 135 25 15 218 128 428 252 211 125 395 233 410 242 16 8
35 20 43 25 24 16 142 85 190 112 52 30 593 348 1225 722 99 58 184 106 188
106 5 0 5 -46 1 -102z m-5781 -2 c89 -52 178 -103 197 -114 19 -11 91 -52 160
-92 69 -40 143 -83 165 -95 22 -13 81 -46 130 -75 50 -29 149 -86 220 -128 72
-41 288 -166 480 -277 193 -111 369 -213 392 -226 23 -13 262 -152 532 -308
l491 -285 0 -1733 c0 -953 -2 -1733 -5 -1733 -4 0 -156 102 -465 313 -63 43
-191 130 -285 193 -93 63 -244 166 -335 227 -91 62 -250 170 -355 241 -104 71
-257 175 -340 231 -177 121 -476 324 -737 500 -144 97 -188 132 -189 148 -1
12 -2 40 -4 62 -1 22 -6 83 -9 135 -4 52 -9 118 -11 145 -2 28 -6 95 -10 150
-3 55 -8 120 -10 145 -2 25 -7 92 -10 150 -4 58 -8 128 -10 155 -2 28 -7 93
-10 145 -3 52 -8 115 -10 140 -2 25 -7 86 -10 135 -6 98 -12 180 -20 295 -3
41 -7 107 -10 145 -2 39 -7 99 -9 135 -3 36 -8 103 -11 150 -3 47 -8 114 -10
150 -2 36 -7 106 -10 155 -3 50 -8 110 -10 135 -2 25 -7 90 -10 145 -3 55 -8
127 -10 160 -6 69 -13 171 -20 300 -3 50 -8 109 -10 133 -3 23 -2 42 1 42 3 0
78 -42 167 -94z"/>
<path d="M3250 6631 c-143 -72 -177 -93 -185 -115 -6 -18 -6 -33 1 -44 13 -21
341 -191 369 -191 11 0 97 39 190 87 139 72 172 94 180 116 6 18 6 33 -1 44
-10 16 -348 191 -369 191 -5 0 -89 -40 -185 -88z m146 -131 c-1 -39 -6 -70
-11 -69 -17 3 -135 63 -134 69 0 7 121 69 136 70 8 0 11 -22 9 -70z m156 38
c37 -18 68 -35 68 -38 0 -3 -34 -22 -75 -43 l-75 -37 0 75 c0 41 3 75 7 75 3
0 37 -14 75 -32z"/>
<path d="M2274 6139 c-98 -50 -185 -96 -191 -101 -19 -15 -16 -63 5 -80 26
-23 338 -188 354 -188 23 0 350 169 377 195 39 37 20 69 -69 117 -99 53 -286
148 -292 148 -3 0 -85 -41 -184 -91z m153 -152 l3 -86 -87 46 c-49 25 -89 47
-91 48 -5 5 153 84 162 81 6 -1 11 -41 13 -89z m223 13 c0 -3 -33 -22 -74 -42
l-73 -37 -2 80 -2 79 75 -37 c42 -21 76 -40 76 -43z"/>
<path d="M4230 6140 c-91 -49 -171 -98 -178 -108 -7 -12 -10 -30 -7 -45 6 -21
39 -42 193 -119 208 -105 197 -104 298 -48 96 54 115 64 192 105 75 41 96 70
75 104 -11 20 -361 200 -388 200 -11 0 -94 -40 -185 -89z m323 -99 c59 -28 85
-51 58 -51 -5 0 -41 -18 -80 -40 -39 -22 -73 -40 -76 -40 -3 0 -5 41 -5 90 0
83 1 90 18 82 9 -5 47 -24 85 -41z m-179 -18 c-1 -32 -3 -66 -3 -76 -1 -16
-10 -13 -71 19 -39 20 -67 40 -63 45 13 12 117 68 128 68 7 1 10 -21 9 -56z"/>
<path d="M3272 5979 c-86 -45 -197 -103 -247 -129 -49 -26 -144 -76 -210 -110
-66 -35 -156 -82 -200 -105 -44 -23 -113 -59 -153 -80 -76 -39 -97 -63 -87
-95 9 -29 19 -35 285 -178 36 -19 70 -38 75 -42 6 -4 53 -30 107 -58 53 -28
167 -90 255 -138 320 -175 342 -186 365 -178 17 5 283 150 606 330 23 13 63
36 90 50 213 118 320 179 335 192 20 17 23 65 5 79 -15 12 -142 79 -433 228
-115 59 -301 154 -411 211 -111 57 -207 104 -213 104 -6 0 -82 -37 -169 -81z
m109 -91 c3 -48 1 -859 -2 -862 -2 -2 -50 22 -106 52 l-102 56 -3 157 c-3 144
-5 160 -23 173 -26 19 -49 13 -131 -32 -38 -20 -98 -53 -134 -71 l-66 -34
-122 68 c-67 37 -124 71 -127 75 -3 5 37 30 87 55 51 26 116 60 143 75 28 15
124 66 215 113 91 47 208 109 260 136 103 55 110 57 111 39z m358 -104 c485
-249 576 -297 584 -304 5 -4 -4 -14 -20 -22 -15 -8 -74 -40 -130 -72 l-102
-57 -147 76 c-104 54 -153 75 -169 71 -26 -7 -45 -47 -44 -91 1 -16 1 -80 0
-142 l-1 -111 -42 -25 c-97 -56 -161 -88 -167 -82 -9 10 -7 875 3 875 4 0 110
-52 235 -116z m-683 -529 c2 -60 2 -61 -75 -17 l-44 25 54 28 c30 15 56 25 59
23 2 -3 5 -29 6 -59z m834 39 c28 -14 50 -28 50 -30 0 -6 -73 -51 -95 -57 -19
-6 -20 -3 -19 46 2 80 -4 77 64 41z"/>
<path d="M5425 5708 c-118 -63 -314 -175 -327 -186 -28 -23 -23 -67 10 -90 33
-23 337 -176 370 -187 19 -5 57 12 185 86 179 102 204 120 202 148 -2 35 -27
52 -205 141 -201 100 -208 103 -235 88z m-17 -218 c-2 -44 -4 -80 -6 -80 -2 0
-35 16 -74 37 -61 31 -68 37 -52 47 28 17 129 74 132 75 1 1 1 -35 0 -79z
m176 39 c47 -22 88 -44 91 -49 5 -8 -187 -122 -194 -114 -2 2 -3 34 -1 71 1
38 2 83 2 101 0 17 4 32 9 32 4 0 46 -18 93 -41z"/>
<path d="M1226 5611 c-269 -137 -269 -141 -23 -279 91 -52 174 -96 184 -98 26
-6 383 178 407 210 33 44 14 62 -168 163 -91 51 -176 94 -188 96 -15 3 -93
-31 -212 -92z m174 -88 c1 -21 2 -66 4 -100 2 -38 -1 -63 -7 -63 -9 0 -102 49
-171 91 l-29 17 89 46 c49 25 95 45 102 45 7 1 12 -13 12 -36z m227 -49 c-8
-8 -141 -73 -144 -71 -1 2 -5 38 -7 80 l-4 77 78 -42 c44 -23 78 -43 77 -44z"/>
<path d="M4440 5152 c-81 -42 -316 -176 -332 -190 -28 -23 -23 -67 10 -90 47
-32 371 -202 386 -202 14 0 363 199 376 215 6 7 12 22 15 33 7 37 10 35 -275
184 -133 70 -139 72 -180 50z m-1 -226 l-3 -94 -77 39 c-43 21 -80 42 -83 47
-4 7 146 101 162 102 1 0 2 -42 1 -94z m179 48 c48 -26 89 -49 92 -51 5 -5 -2
-10 -80 -54 -25 -14 -62 -36 -83 -49 l-38 -22 3 111 c2 61 6 111 11 111 4 0
47 -21 95 -46z"/>
<path d="M2314 5118 c-321 -169 -314 -164 -314 -202 0 -17 11 -33 33 -49 66
-49 337 -197 360 -197 14 0 76 28 139 63 63 34 140 76 171 92 102 54 123 83
89 125 -21 25 -356 210 -380 210 -10 0 -54 -19 -98 -42z m64 -208 c4 -123 6
-121 -68 -75 -19 12 -56 34 -82 49 -27 15 -48 28 -48 31 0 2 37 22 83 45 45
23 86 46 92 51 5 5 12 9 15 9 3 0 7 -49 8 -110z m175 -36 c-43 -24 -82 -44
-88 -44 -6 0 -11 39 -12 94 l-3 94 91 -50 91 -51 -79 -43z"/>
<path d="M3437 4582 c-9 -2 -101 -52 -205 -110 -176 -101 -187 -109 -190 -139
-4 -36 19 -57 123 -113 33 -18 105 -58 160 -90 55 -31 108 -60 117 -63 19 -7
367 188 408 229 43 42 19 64 -186 179 -198 112 -201 113 -227 107z m-23 -257
c1 -64 -3 -105 -9 -105 -5 0 -51 24 -102 53 l-92 53 97 56 c53 31 99 54 101
52 2 -2 4 -51 5 -109z m244 22 l34 -20 -69 -39 c-37 -22 -83 -49 -100 -60
l-33 -20 0 117 0 117 68 -37 c37 -21 82 -47 100 -58z"/>
<path d="M5963 4842 c-88 -54 -166 -106 -172 -117 -11 -21 -16 -88 -27 -314
-6 -150 1 -181 44 -181 25 0 309 166 349 204 18 17 23 36 27 96 25 359 25 378
1 396 -10 8 -28 14 -39 13 -12 0 -94 -44 -183 -97z m120 -124 c-2 -35 -5 -85
-7 -113 -2 -36 -7 -49 -17 -48 -32 6 -170 86 -166 96 2 9 175 121 193 127 1 0
0 -28 -3 -62z m-63 -233 c0 -8 -126 -85 -138 -85 -7 0 -11 4 -8 8 2 4 6 40 8
79 l2 71 68 -35 c38 -19 68 -36 68 -38z"/>
<path d="M4996 4258 c-102 -61 -188 -118 -191 -125 -3 -8 -8 -117 -11 -243 -6
-227 -6 -227 16 -243 12 -8 30 -14 40 -12 24 5 343 201 363 223 11 13 17 56
22 177 4 88 8 186 9 217 3 65 -9 97 -41 109 -18 6 -58 -14 -207 -103z m130
-130 c-2 -40 -5 -92 -5 -115 -1 -40 -2 -42 -23 -34 -13 5 -58 29 -101 54 l-79
45 99 60 c54 33 101 61 106 61 4 1 5 -32 3 -71z m-128 -183 c39 -21 72 -42 72
-45 -1 -9 -150 -95 -158 -90 -4 3 -6 25 -6 50 1 25 2 65 3 88 1 24 4 42 9 40
4 -1 40 -21 80 -43z"/>
<path d="M4043 3685 c-56 -35 -106 -65 -110 -67 -39 -17 -156 -94 -163 -108
-5 -10 -10 -120 -10 -246 -1 -313 -7 -309 241 -158 96 59 184 116 196 128 22
20 23 29 27 246 6 310 -1 317 -181 205z m69 -216 l-3 -121 -22 14 c-12 8 -57
34 -100 58 -61 35 -75 47 -65 56 13 13 179 113 188 114 3 0 4 -54 2 -121z
m-132 -132 l90 -54 -100 -61 -100 -62 1 115 c1 63 6 115 10 115 4 0 49 -24 99
-53z"/>
<path d="M4960 3430 c-272 -170 -501 -317 -507 -327 -9 -13 -14 -91 -18 -248
-8 -359 -14 -604 -20 -802 -5 -174 -5 -183 15 -203 11 -11 28 -20 38 -20 9 0
112 62 227 138 675 445 774 512 779 529 3 10 8 83 11 163 4 80 8 170 10 200 2
30 6 129 10 220 4 91 9 190 10 220 2 30 6 135 10 232 8 194 5 208 -44 208 -17
0 -201 -110 -521 -310z m455 113 c-2 -16 -6 -100 -10 -188 -4 -88 -8 -185 -10
-215 -2 -30 -6 -129 -10 -220 -4 -91 -8 -181 -10 -200 -1 -19 -3 -52 -4 -74
-1 -29 -4 -36 -13 -29 -11 9 -584 342 -693 403 -81 46 -83 39 32 111 l105 65
139 -79 c149 -84 180 -91 198 -44 5 13 12 94 15 182 3 87 9 162 14 167 17 17
227 147 239 147 7 1 10 -10 8 -26z m-373 -270 c-2 -38 -5 -70 -7 -72 -2 -2
-29 11 -60 29 -33 19 -53 36 -48 41 16 16 98 67 108 68 7 1 9 -24 7 -66z
m-457 -337 c17 -11 201 -119 319 -186 17 -9 99 -57 181 -105 83 -48 166 -96
185 -107 19 -11 37 -22 38 -23 2 -2 -61 -46 -140 -98 -388 -255 -614 -404
-626 -411 -11 -6 -13 20 -10 141 l3 148 110 72 c153 101 175 120 175 148 0 29
-26 49 -171 135 l-107 62 3 42 c2 22 4 76 4 119 1 42 4 77 9 77 4 0 16 -6 27
-14z m17 -393 l50 -27 -26 -21 c-14 -11 -39 -29 -56 -38 l-30 -18 0 65 c0 36
3 66 6 66 4 0 29 -12 56 -27z"/>
<path d="M5905 3640 c-87 -54 -164 -105 -171 -112 -17 -17 -22 -49 -29 -208
-3 -74 -8 -154 -11 -177 -5 -53 11 -90 43 -98 20 -5 57 15 189 101 91 58 168
114 173 123 9 16 15 88 27 309 6 109 5 125 -11 142 -10 11 -26 20 -35 20 -9 0
-88 -45 -175 -100z m102 -162 c-4 -51 -6 -97 -7 -101 0 -9 -160 74 -160 83 0
5 22 19 90 60 14 8 36 23 50 33 13 9 26 17 28 17 3 0 2 -42 -1 -92z m-60 -175
c2 -5 -29 -27 -67 -50 l-71 -43 5 48 c3 26 5 64 5 84 l1 38 62 -35 c35 -19 64
-38 65 -42z"/>
<path d="M5823 2490 c-183 -124 -169 -102 -178 -280 -3 -63 -8 -145 -11 -182
-4 -58 -1 -71 16 -88 11 -11 28 -20 38 -20 18 0 302 186 334 218 18 19 23 58
34 288 6 124 4 142 -11 157 -9 9 -26 17 -38 16 -12 0 -95 -49 -184 -109z m115
-145 c-2 -48 -7 -85 -13 -85 -14 0 -120 65 -120 73 0 5 122 94 133 96 1 1 1
-37 0 -84z m-55 -155 c7 -6 -50 -50 -120 -93 -10 -6 -12 4 -9 45 3 29 5 68 5
86 l1 34 58 -32 c31 -18 61 -36 65 -40z"/>
<path d="M3943 2392 c-160 -102 -184 -120 -188 -147 -3 -16 -5 -122 -3 -235
l3 -204 26 -15 c25 -14 30 -13 95 28 173 106 300 192 312 209 20 30 24 435 5
462 -26 37 -61 23 -250 -98z m145 -203 l-3 -49 -78 47 c-42 26 -76 51 -74 56
1 4 36 30 77 56 l75 48 3 -54 c2 -30 2 -76 0 -104z m-154 -46 c33 -20 74 -45
89 -56 l29 -20 -92 -58 c-50 -33 -93 -59 -95 -59 -3 0 -4 52 -3 115 1 63 3
115 6 115 2 0 32 -17 66 -37z"/>
<path d="M5070 1982 c-35 -16 -326 -216 -335 -231 -11 -18 -11 -20 -19 -254
-5 -158 -4 -169 14 -187 11 -11 27 -20 35 -20 21 0 344 219 360 244 8 12 14
30 13 41 0 11 3 100 7 198 6 162 5 180 -11 198 -18 19 -37 23 -64 11z m-39
-254 c-1 -46 -3 -84 -5 -85 -3 -4 -122 71 -127 79 -4 8 123 98 130 92 2 -2 3
-41 2 -86z m-120 -108 c38 -22 70 -44 72 -48 2 -4 -31 -31 -75 -60 l-78 -52 0
100 c0 55 3 100 7 100 4 0 37 -18 74 -40z"/>
<path d="M3943 1229 c-98 -65 -184 -127 -190 -137 -9 -12 -13 -78 -13 -221 -1
-179 1 -205 16 -222 9 -10 26 -19 36 -19 27 0 376 238 383 261 4 10 8 105 10
211 5 292 5 292 -242 127z m128 -144 c-1 -44 -4 -82 -6 -84 -3 -2 -34 15 -70
39 l-66 43 63 43 c35 23 67 42 72 40 5 -1 8 -38 7 -81z m-122 -106 c45 -29 81
-54 81 -58 0 -6 -153 -112 -171 -119 -4 -2 -8 49 -8 112 1 64 5 116 9 116 5 0
45 -23 89 -51z"/>
<path d="M702 4910 c-22 -24 -22 -15 -7 -265 8 -143 14 -205 21 -216 3 -5 84
-56 180 -113 172 -103 188 -109 223 -82 13 10 11 159 -4 396 -4 62 -20 110
-36 110 -4 0 -76 41 -159 90 -84 50 -162 93 -175 96 -16 4 -29 -1 -43 -16z
m178 -190 c16 -11 31 -20 34 -20 12 0 86 -53 86 -61 0 -12 -173 -100 -181 -92
-4 4 -9 54 -13 110 l-5 102 26 -10 c14 -5 38 -18 53 -29z m132 -250 c2 -39 2
-75 0 -80 -3 -8 -142 70 -142 80 0 6 120 70 131 70 4 0 9 -32 11 -70z"/>
<path d="M1683 4348 c-29 -14 -34 -41 -28 -155 3 -54 7 -147 10 -207 2 -59 7
-116 10 -125 8 -25 354 -231 387 -231 52 0 55 27 42 355 -2 66 -7 127 -10 137
-4 13 -124 98 -139 98 -2 0 -45 25 -96 56 -119 73 -148 84 -176 72z m191 -214
c53 -31 96 -60 96 -65 0 -5 -8 -13 -17 -16 -10 -4 -51 -26 -93 -50 -41 -24
-77 -43 -80 -43 -3 0 -6 52 -8 115 -2 63 -1 115 2 115 3 0 48 -25 100 -56z
m120 -248 c3 -53 1 -96 -3 -94 -34 15 -160 95 -158 101 2 7 150 95 155 92 1
-1 4 -45 6 -99z"/>
<path d="M2700 3730 c-21 -21 -21 -26 -17 -251 3 -148 9 -234 16 -243 16 -19
342 -214 380 -227 27 -9 35 -8 51 6 19 17 20 33 20 250 0 170 -3 235 -12 247
-11 14 -173 118 -183 118 -3 0 -45 25 -95 55 -112 68 -132 73 -160 45z m189
-195 c9 -5 38 -23 65 -39 l48 -28 -98 -59 c-54 -32 -100 -56 -102 -54 -2 2 -5
55 -6 119 l-3 115 40 -22 c22 -12 47 -26 56 -32z m149 -255 c0 -66 -2 -119 -6
-116 -26 15 -151 91 -171 103 -23 15 -22 16 75 73 55 33 99 59 100 59 0 1 1
-53 2 -119z"/>
<path d="M792 3719 c-20 -8 -44 -46 -37 -59 2 -3 6 -61 9 -130 10 -186 17
-263 25 -278 10 -18 332 -222 351 -222 9 0 25 7 37 15 20 14 21 22 18 103 -10
222 -17 327 -25 347 -5 13 -69 59 -162 117 -191 119 -188 118 -216 107z m182
-220 c43 -27 77 -52 75 -53 -18 -15 -153 -85 -157 -81 -3 3 -7 40 -9 82 -2 43
-5 84 -8 91 -8 23 20 12 99 -39z m100 -217 c3 -45 4 -82 2 -82 -2 0 -36 20
-76 44 l-71 44 48 28 c26 15 57 33 68 39 11 7 21 12 22 11 1 -1 4 -39 7 -84z"/>
<path d="M1376 3711 c-18 -20 -18 -6 -1 -331 3 -47 7 -143 10 -215 3 -71 7
-168 10 -215 2 -47 7 -148 10 -225 9 -188 12 -227 20 -247 3 -9 41 -38 83 -65
42 -26 125 -79 184 -118 430 -279 714 -461 732 -468 11 -5 29 -1 44 9 l24 16
-6 297 c-20 914 -21 941 -38 957 -34 32 -1013 624 -1032 624 -13 0 -31 -9 -40
-19z m350 -294 c2 -2 7 -64 10 -138 3 -74 7 -151 8 -172 3 -40 29 -77 55 -77
9 0 79 36 156 81 l139 81 31 -18 c16 -10 63 -39 104 -65 74 -47 74 -47 50 -62
-13 -8 -114 -68 -224 -132 -110 -65 -258 -153 -330 -195 -125 -74 -190 -110
-198 -110 -2 0 -5 30 -6 68 -1 37 -4 92 -6 122 -2 30 -6 123 -10 205 -3 83 -8
182 -10 220 -2 39 -7 132 -10 208 l-7 137 122 -74 c67 -41 124 -77 126 -79z
m210 -127 c32 -20 41 -30 32 -37 -19 -14 -106 -63 -112 -63 -3 0 -6 34 -6 75
0 86 -6 84 86 25z m421 -463 l3 -116 -136 -82 c-138 -83 -160 -105 -142 -145
5 -11 72 -60 149 -108 l139 -89 1 -66 c0 -36 2 -103 4 -148 l3 -83 -37 23
c-141 84 -750 484 -748 490 3 11 740 446 751 443 5 -1 11 -55 13 -119z m4
-269 c5 -71 5 -128 1 -128 -3 0 -31 17 -63 37 l-58 38 52 32 c58 36 67 39 68
21z"/>
<path d="M850 2572 c-25 -21 -27 -34 -16 -182 4 -58 9 -132 10 -165 2 -33 6
-70 10 -81 9 -30 318 -234 354 -234 45 0 54 27 47 148 -13 244 -16 278 -21
294 -5 17 -303 220 -341 232 -13 4 -28 0 -43 -12z m178 -207 c34 -22 62 -42
62 -45 0 -7 -117 -73 -127 -72 -4 1 -9 32 -10 69 -2 38 -5 76 -7 85 -3 12 0
15 7 10 7 -4 40 -25 75 -47z m108 -205 c5 -79 4 -81 -16 -70 -32 17 -109 70
-114 79 -5 7 116 82 122 76 2 -2 5 -40 8 -85z"/>
<path d="M2720 2490 c-20 -20 -20 -30 -16 -233 2 -116 7 -219 10 -227 8 -20
370 -250 394 -250 10 0 27 9 37 20 17 19 19 39 17 232 -2 162 -6 217 -16 233
-8 12 -45 41 -83 64 -37 23 -119 73 -181 111 -62 39 -119 70 -127 70 -8 0 -24
-9 -35 -20z m184 -197 c42 -25 76 -49 76 -52 0 -8 -142 -96 -154 -96 -4 0 -9
44 -10 98 0 53 2 97 5 97 4 0 41 -21 83 -47z m146 -233 l0 -120 -89 57 c-50
32 -91 62 -92 68 -2 9 157 114 174 115 4 0 7 -54 7 -120z"/>
<path d="M1765 1960 c-16 -18 -17 -36 -11 -215 4 -108 12 -206 17 -218 10 -20
249 -185 330 -229 33 -17 62 -12 82 16 8 12 0 389 -9 420 -7 22 -346 246 -372
246 -11 0 -27 -9 -37 -20z m175 -197 l71 -46 -68 -43 c-37 -23 -69 -42 -69
-41 -4 4 -10 177 -7 177 2 0 35 -21 73 -47z m132 -216 c2 -48 -1 -87 -5 -87
-10 0 -160 101 -155 105 2 1 37 23 78 49 47 29 76 42 77 34 1 -7 4 -52 5 -101z"/>
<path d="M2741 1321 c-21 -21 -22 -27 -17 -228 5 -226 4 -222 75 -265 20 -12
38 -24 41 -28 21 -23 260 -170 277 -170 27 0 53 25 54 53 2 86 -3 391 -8 403
-7 18 -351 246 -380 252 -13 2 -29 -4 -42 -17z m166 -192 c35 -23 63 -44 63
-48 0 -7 -116 -83 -126 -82 -7 1 -12 171 -5 171 3 0 33 -19 68 -41z m152 -219
l1 -121 -57 39 c-32 22 -75 51 -95 64 l-37 26 82 55 c45 31 87 56 93 56 8 1
12 -38 13 -119z"/>
</g>
</svg>
